# xmcd
#
# Track frame offsets:
#	150
#	18269
#	29720
#	42970
#	52454
#	68095
#	80163
#	96695
#	107433
#	121230
#	133394
#	144272
#	157731
#	168901
#	181434
#	194338
#
# Disc length: 2832 seconds
#
# Revision: 1
# Processed by: cddbd v1.5.2PL0 Copyright (c) Steve Scherf et al.
# Submitted via: audiograbber 1.83.01
#
DISCID=e60b0e10
DTITLE=MARIA DAPAZ - Ô ABRE ALAS
DYEAR=1900
DGENRE=
TTITLE0=ÍNDIO QUER APITO-PÓ DE MICO-CABELEIRA DO ZEZÉ
TTITLE1=PEGANDO FOGO
TTITLE2=SACA ROLHA-CACHAÇA-ME DÁ UM DINHEIRO AÍ
TTITLE3=MARCHA DO ABACAXI
TTITLE4=PIERROT APAIXONADO
TTITLE5=TA-HI
TTITLE6=Ô ABRE ALA-MARCHA DO REMADOR-ALLAH-IA-Ô
TTITLE7=OH BELA
TTITLE8=CONFETE
TTITLE9=BANDEIRA BRANCA
TTITLE10=É DE FAZER CHORAR
TTITLE11=MÁSCARA NEGRA
TTITLE12=AURORA-A JARDINEIRA-CHIQUITA BACANA
TTITLE13=EVOCAÇÃO
TTITLE14=AS PASTORINHAS
TTITLE15=CANTIGA PRA LUA
EXTD=
EXTT0=
EXTT1=
EXTT2=
EXTT3=
EXTT4=
EXTT5=
EXTT6=
EXTT7=
EXTT8=
EXTT9=
EXTT10=
EXTT11=
EXTT12=
EXTT13=
EXTT14=
EXTT15=
PLAYORDER=
